<svg xmlns="http://www.w3.org/2000/svg" viewBox="0 0 64 64" width="64" height="64">
  <defs>
    <linearGradient id="tech-gradient" x1="0%" y1="100%" x2="100%" y2="0%">
      <stop offset="0%" style="stop-color:#0099ff;stop-opacity:1" />
      <stop offset="100%" style="stop-color:#00f2ff;stop-opacity:1" />
    </linearGradient>
    
    <filter id="bold-glow" x="-50%" y="-50%" width="200%" height="200%">
      <feGaussianBlur stdDeviation="2" result="coloredBlur"/>
      <feMerge>
        <feMergeNode in="coloredBlur"/>
        <feMergeNode in="SourceGraphic"/>
      </feMerge>
    </filter>
  </defs>
  
  <g filter="url(#bold-glow)">
    <path d="M58,32 C58,18 46,6 32,6 C18,6 6,18 6,32 C6,46 18,58 32,58 L32,48 C22,48 16,40 16,32 C16,22 24,16 32,16 C40,16 48,22 48,32 C48,38 44,44 38,46 L42,54 C52,50 58,42 58,32 Z" fill="url(#tech-gradient)"/>
    
    <path d="M32,24 C26,24 22,28 22,34 C22,40 26,44 30,44 L36,44 C42,44 46,38 46,32 L36,32 C36,36 34,38 32,38 L30,38 C28,38 26,36 26,34 C26,32 28,30 30,30 L42,30 L46,22 L32,22 Z" fill="#ffffff"/>
  </g>
</svg>